<?xml version="1.0" encoding="UTF-8" standalone="no"?>
<!-- Created with Inkscape (http://www.inkscape.org/) -->

<svg
   xmlns:dc="http://purl.org/dc/elements/1.1/"
   xmlns:cc="http://creativecommons.org/ns#"
   xmlns:rdf="http://www.w3.org/1999/02/22-rdf-syntax-ns#"
   xmlns:svg="http://www.w3.org/2000/svg"
   xmlns="http://www.w3.org/2000/svg"
   version="1.1"
   width="128"
   height="128"
   id="svg2">
  <defs
     id="defs4" />
  <metadata
     id="metadata7">
    <rdf:RDF>
      <cc:Work
         rdf:about="">
        <dc:format>image/svg+xml</dc:format>
        <dc:type
           rdf:resource="http://purl.org/dc/dcmitype/StillImage" />
        <dc:title></dc:title>
      </cc:Work>
    </rdf:RDF>
  </metadata>
  <g
     transform="translate(0,-924.36218)"
     id="layer1">
    <g
       transform="matrix(0.72398596,0,0,0.72398596,-242.32856,291.45639)"
       id="layer1-9">
      <g
         transform="matrix(0.8270688,0,0,0.8270688,-55.365972,706.36381)"
         id="layer1-1">
        <path
           d="m 646.07405,203.25991 -106.13118,0.55691 c -21.89746,-1.11326 -43.4776,4.21614 -62.13527,14.95702 l 0,0.0796 c -3.33711,1.81891 -5.56911,5.32143 -5.56911,9.38792 0,5.92692 4.73778,10.74041 10.66086,10.74041 3.09166,0 5.91605,-1.33165 7.8763,-3.42102 23.3302,-12.50417 51.86997,-14.87308 78.20611,-4.05749 46.77861,19.20199 69.16922,72.88108 49.96281,119.65615 -5.1513,12.54406 -12.80214,23.34784 -22.11729,32.06212 l 0.0794,0.0794 c -3.18785,1.85971 -5.33043,5.34825 -5.33043,9.30836 0,5.92667 4.81282,10.66085 10.74041,10.66085 3.81113,0 7.16534,-2.00192 9.06968,-5.01219 11.34954,-10.67027 20.6758,-23.81463 26.97037,-39.14284 0.43387,-1.04671 43.88473,-106.9623 43.99591,-107.245 7.42263,-18.07364 -1.25817,-38.72468 -19.33274,-46.144 -5.57424,-2.286 -10.68471,-2.54526 -16.94598,-2.46631 z m -5.01219,9.94483 c 0.59711,-0.0411 1.20677,1e-5 1.82985,0 5.46284,5e-5 9.68726,1.4896 12.80894,4.53484 3.1216,3.04535 4.69393,6.84804 4.69395,11.37688 -2e-5,2.57685 -0.45881,4.98992 -1.35249,7.31939 -0.89373,2.32956 -2.27818,4.76864 -4.21661,7.3194 -1.28391,1.69185 -3.57341,4.14396 -6.9216,7.31939 -3.34826,3.17545 -5.47101,5.32357 -6.36469,6.36469 -0.89373,1.04114 -1.67383,2.03417 -2.22764,3.02322 l 21.08303,0 0,10.18351 -37.15387,0 c 0.40279,-3.85217 1.56618,-7.53035 3.58014,-10.97909 2.01397,-3.44872 5.99258,-7.98389 11.93379,-13.68408 4.78314,-4.60697 7.74848,-7.74812 8.83101,-9.38792 1.46011,-2.26442 2.14805,-4.47048 2.14808,-6.68292 -3e-5,-2.44661 -0.63815,-4.33418 -1.90941,-5.64866 -1.27133,-1.31438 -3.01034,-1.98892 -5.25086,-1.98897 -2.21537,5e-5 -3.94181,0.68907 -5.25087,2.06853 -1.30909,1.37953 -2.1058,3.64062 -2.3072,6.84204 l -10.5813,-1.03427 c 0.62934,-6.0385 2.64384,-10.41873 5.9669,-13.04761 2.90764,-2.3002 6.48106,-3.61081 10.66085,-3.89837 z"
           id="path17"
           style="fill:#f79a10" />
        <path
           d="m 506.27674,339.99107 c 0.21694,15.26358 11.55619,21.42257 23.76314,21.42257 8.93497,0 20.27079,-3.94022 20.27079,-16.25838 0,-10.58394 -12.8622,-14.28432 -35.09837,-19.69813 -17.87705,-4.43531 -35.74815,-11.57434 -35.74815,-33.98252 0,-32.50129 24.85195,-40.87538 49.0483,-40.87538 24.63499,0 47.30535,9.35365 49.70417,40.62588 l -29.42764,0 c -0.87202,-13.53836 -10.03029,-17.23327 -21.14336,-17.23327 -6.97992,0 -17.22649,1.47429 -17.22649,11.81863 0,12.55888 17.44344,14.27845 35.09656,18.96341 18.09511,4.67448 35.75464,12.06354 35.75464,35.70665 0,33.48711 -25.72368,44.32032 -51.44734,44.32032 -26.1572,0 -51.65947,-11.07861 -52.97475,-44.81523 l 29.4285,0 0,0.005 z"
           id="path19"
           style="fill:#666666" />
      </g>
      <g
         transform="scale(0.98346501,1.016813)"
         id="text3120"
         style="font-size:30.88782501px;font-style:normal;font-variant:normal;font-weight:bold;font-stretch:normal;line-height:125%;letter-spacing:0px;word-spacing:0px;fill:#000000;fill-opacity:1;stroke:none;font-family:Arial;-inkscape-font-specification:Arial Bold" />
    </g>
  </g>
</svg>
